C:\Users\r0593348\3dpredictsim\Results\Batchsim_tmt_linear\Pog_s1_tmt_aCst_d02_k800_ig24_pas_GRF.mot
nRows=17
nColumns=19

name C:\Users\r0593348\3dpredictsim\Results\Batchsim_tmt_linear\Pog_s1_tmt_aCst_d02_k800_ig24_pas_GRF.mot
datacolumns 19
datarows 17
range 0.5531253903 0.7301255152
endheader
time 	ground_force_vx	ground_force_vy	ground_force_vz	ground_force_px	ground_force_py	ground_force_pz	1_ground_force_vx	1_ground_force_vy	1_ground_force_vz	1_ground_force_px	1_ground_force_py	1_ground_force_pz	ground_torque_x	ground_torque_y	ground_torque_z	1_ground_torque_x	1_ground_torque_y	1_ground_torque_z
        0.5531253903	       96.1372842837	      511.8096876218	        4.1832652334	        0.3778128414	        0.0000000000	        0.0369617328	      -89.8666490853	       83.4973069384	      -38.5374152579	        0.8670668310	        0.0000000000	       -0.0381506287	        0.0000000000	        0.0000000000	        0.0000000000	        0.0000000000	        0.0000000000	        0.0000000000	
        0.5641878981	       79.6466000995	      432.3308019792	        8.8690463676	        0.3811877648	        0.0000000000	        0.0361324646	      -82.5517431559	      177.3920806760	      -77.4093982782	        0.8730999065	        0.0000000000	       -0.0364814840	        0.0000000000	        0.0000000000	        0.0000000000	        0.0000000000	        0.0000000000	        0.0000000000	
        0.5752504059	       63.4766385460	      348.6912680524	        7.4938533984	        0.3861858900	        0.0000000000	        0.0344668607	      -37.8546717426	      318.7887317685	      -17.0290144723	        0.8766442880	        0.0000000000	       -0.0344210795	        0.0000000000	        0.0000000000	        0.0000000000	        0.0000000000	        0.0000000000	        0.0000000000	
        0.5863129137	       42.0478203921	      258.3900624902	        4.8269515316	        0.3943019713	        0.0000000000	        0.0312842985	      -38.0305293828	      452.8778772144	       -0.0644730291	        0.8799916584	        0.0000000000	       -0.0347157429	        0.0000000000	        0.0000000000	        0.0000000000	        0.0000000000	        0.0000000000	        0.0000000000	
        0.5973754215	       19.1638744829	      170.0184028988	        8.6740247166	        0.4087198522	        0.0000000000	        0.0249551787	      -71.7523941202	      609.9303390976	        5.2622825486	        0.8876426438	        0.0000000000	       -0.0371035030	        0.0000000000	        0.0000000000	        0.0000000000	        0.0000000000	        0.0000000000	        0.0000000000	
        0.6084379293	        3.6047430200	      132.6681660067	       13.2042522351	        0.4153922523	        0.0000000000	        0.0215629915	      -96.7319757381	      734.9524510739	        9.4441109337	        0.8940132913	        0.0000000000	       -0.0390200790	        0.0000000000	        0.0000000000	        0.0000000000	        0.0000000000	        0.0000000000	        0.0000000000	
        0.6195004372	        1.5778998826	      101.6787001403	       13.5620406956	        0.4159396217	        0.0000000000	        0.0216332644	     -105.0470371534	      794.7410491109	       11.5141285484	        0.8984859800	        0.0000000000	       -0.0402394054	        0.0000000000	        0.0000000000	        0.0000000000	        0.0000000000	        0.0000000000	        0.0000000000	
        0.6305629450	       -2.3793899554	       65.7163391006	       12.1043275901	        0.4164302466	        0.0000000000	        0.0216503582	     -102.4382612093	      805.6203756115	       12.1251662555	        0.9018182911	        0.0000000000	       -0.0410095784	        0.0000000000	        0.0000000000	        0.0000000000	        0.0000000000	        0.0000000000	        0.0000000000	
        0.6416254528	       -7.9119583466	       26.9090353334	        5.9378302329	        0.4161398287	        0.0000000000	        0.0213005746	      -95.5128532002	      794.9720642171	       12.3212313342	        0.9047549238	        0.0000000000	       -0.0414787467	        0.0000000000	        0.0000000000	        0.0000000000	        0.0000000000	        0.0000000000	        0.0000000000	
        0.6526879606	        0.0897025959	       -0.0879680389	       -0.0020949354	        0.0000000000	        0.0000000000	        0.0000000000	      -86.3810592576	      780.7529137860	       13.2399426335	        0.9079099585	        0.0000000000	       -0.0417190352	        0.0000000000	        0.0000000000	        0.0000000000	        0.0000000000	        0.0000000000	        0.0000000000	
        0.6637504684	        0.0001630944	       -0.0001306259	        0.0000088801	        0.0000000000	        0.0000000000	        0.0000000000	      -75.0229432016	      758.6332443965	       14.2038431053	        0.9112193271	        0.0000000000	       -0.0418470285	        0.0000000000	        0.0000000000	        0.0000000000	        0.0000000000	        0.0000000000	        0.0000000000	
        0.6748129762	        0.0000762441	       -0.0000529832	        0.0000055111	        0.0000000000	        0.0000000000	        0.0000000000	      -65.0821095133	      733.2086065443	       14.7000056786	        0.9152155274	        0.0000000000	       -0.0418875777	        0.0000000000	        0.0000000000	        0.0000000000	        0.0000000000	        0.0000000000	        0.0000000000	
        0.6858754840	        0.0008126015	       -0.0005059387	        0.0000654598	        0.0000000000	        0.0000000000	        0.0000000000	      -56.4633157495	      708.1801726631	       15.1921781754	        0.9198008214	        0.0000000000	       -0.0418242698	        0.0000000000	        0.0000000000	        0.0000000000	        0.0000000000	        0.0000000000	        0.0000000000	
        0.6969379918	        0.0029186739	       -0.0016648604	        0.0002494734	        0.0000000000	        0.0000000000	        0.0000000000	      -47.7979602863	      681.9324262326	       15.8084659781	        0.9244213355	        0.0000000000	       -0.0417761005	        0.0000000000	        0.0000000000	        0.0000000000	        0.0000000000	        0.0000000000	        0.0000000000	
        0.7080004996	       -0.0305032337	        0.0161787936	       -0.0027139525	        0.0000000000	        0.0000000000	        0.0000000000	      -39.7063248378	      656.5303397198	       16.3470890059	        0.9289809709	        0.0000000000	       -0.0417836811	        0.0000000000	        0.0000000000	        0.0000000000	        0.0000000000	        0.0000000000	        0.0000000000	
        0.7190630074	       -0.0207634895	        0.0103557372	       -0.0019014349	        0.0000000000	        0.0000000000	        0.0000000000	      -32.6874531509	      634.0162302692	       16.7691879327	        0.9334763039	        0.0000000000	       -0.0418355136	        0.0000000000	        0.0000000000	        0.0000000000	        0.0000000000	        0.0000000000	        0.0000000000	
        0.7301255152	       -0.0150854097	        0.0071390937	       -0.0014090204	        0.0000000000	        0.0000000000	        0.0000000000	      -26.6199344641	      615.2974784767	       17.2725441958	        0.9380393175	        0.0000000000	       -0.0419085010	        0.0000000000	        0.0000000000	        0.0000000000	        0.0000000000	        0.0000000000	        0.0000000000	
